<mxfile host="Electron" agent="Mozilla/5.0 (Macintosh; Intel Mac OS X 10_15_7) AppleWebKit/537.36 (KHTML, like Gecko) draw.io/24.7.17 Chrome/128.0.6613.36 Electron/32.0.1 Safari/537.36" version="24.7.17">
  <diagram name="페이지-1" id="5X0Cp1niOQVANVGxv6wF">
    <mxGraphModel dx="856" dy="624" grid="1" gridSize="10" guides="1" tooltips="1" connect="1" arrows="1" fold="1" page="1" pageScale="1" pageWidth="827" pageHeight="1169" math="0" shadow="0">
      <root>
        <mxCell id="0" />
        <mxCell id="1" parent="0" />
        <mxCell id="mTE_38fS_a1iuZElx4U2-5" value="" style="rounded=0;whiteSpace=wrap;html=1;fillColor=#FFFFFF;" vertex="1" parent="1">
          <mxGeometry x="40" y="40" width="820" height="370" as="geometry" />
        </mxCell>
        <mxCell id="Z5EJQrZzNwdHl78D_Ga3-1" value="" style="ellipse;whiteSpace=wrap;html=1;aspect=fixed;fillColor=#fff2cc;strokeColor=#d6b656;" parent="1" vertex="1">
          <mxGeometry x="80" y="120" width="160" height="160" as="geometry" />
        </mxCell>
        <mxCell id="Z5EJQrZzNwdHl78D_Ga3-2" value="" style="curved=1;endArrow=none;html=1;rounded=0;endFill=0;entryX=1;entryY=0;entryDx=0;entryDy=0;exitX=0.058;exitY=0.292;exitDx=0;exitDy=0;exitPerimeter=0;strokeColor=#CCCCCC;" parent="1" source="Z5EJQrZzNwdHl78D_Ga3-1" target="Z5EJQrZzNwdHl78D_Ga3-1" edge="1">
          <mxGeometry width="50" height="50" relative="1" as="geometry">
            <mxPoint x="160" y="210" as="sourcePoint" />
            <mxPoint x="180" y="160" as="targetPoint" />
            <Array as="points">
              <mxPoint x="180" y="210" />
              <mxPoint x="180" y="180" />
              <mxPoint x="130" y="160" />
            </Array>
          </mxGeometry>
        </mxCell>
        <mxCell id="Z5EJQrZzNwdHl78D_Ga3-3" value="" style="curved=1;endArrow=none;html=1;rounded=0;endFill=0;entryX=0.977;entryY=0.361;entryDx=0;entryDy=0;entryPerimeter=0;strokeColor=#CCCCCC;" parent="1" target="Z5EJQrZzNwdHl78D_Ga3-1" edge="1">
          <mxGeometry width="50" height="50" relative="1" as="geometry">
            <mxPoint x="120" y="180" as="sourcePoint" />
            <mxPoint x="240" y="180" as="targetPoint" />
            <Array as="points">
              <mxPoint x="203" y="247" />
              <mxPoint x="230" y="217" />
              <mxPoint x="220" y="200" />
              <mxPoint x="240" y="200" />
            </Array>
          </mxGeometry>
        </mxCell>
        <mxCell id="Z5EJQrZzNwdHl78D_Ga3-4" value="" style="curved=1;endArrow=none;html=1;rounded=0;endFill=0;entryX=0.923;entryY=0.764;entryDx=0;entryDy=0;entryPerimeter=0;exitX=0.09;exitY=0.776;exitDx=0;exitDy=0;exitPerimeter=0;strokeColor=#CCCCCC;" parent="1" source="Z5EJQrZzNwdHl78D_Ga3-1" target="Z5EJQrZzNwdHl78D_Ga3-1" edge="1">
          <mxGeometry width="50" height="50" relative="1" as="geometry">
            <mxPoint x="130" y="190" as="sourcePoint" />
            <mxPoint x="246" y="188" as="targetPoint" />
            <Array as="points">
              <mxPoint x="213" y="257" />
              <mxPoint x="220" y="240" />
            </Array>
          </mxGeometry>
        </mxCell>
        <mxCell id="Z5EJQrZzNwdHl78D_Ga3-33" style="edgeStyle=orthogonalEdgeStyle;rounded=0;orthogonalLoop=1;jettySize=auto;html=1;exitX=1;exitY=0.5;exitDx=0;exitDy=0;entryX=0;entryY=0.5;entryDx=0;entryDy=0;strokeColor=#000000;" parent="1" source="Z5EJQrZzNwdHl78D_Ga3-5" target="Z5EJQrZzNwdHl78D_Ga3-30" edge="1">
          <mxGeometry relative="1" as="geometry" />
        </mxCell>
        <mxCell id="Z5EJQrZzNwdHl78D_Ga3-5" value="" style="ellipse;whiteSpace=wrap;html=1;fillColor=#FFFFFF;strokeColor=#999999;" parent="1" vertex="1">
          <mxGeometry x="280" y="120" width="80" height="50" as="geometry" />
        </mxCell>
        <mxCell id="Z5EJQrZzNwdHl78D_Ga3-34" style="edgeStyle=orthogonalEdgeStyle;rounded=0;orthogonalLoop=1;jettySize=auto;html=1;exitX=1;exitY=0.5;exitDx=0;exitDy=0;entryX=0;entryY=0.5;entryDx=0;entryDy=0;strokeColor=#000000;" parent="1" source="Z5EJQrZzNwdHl78D_Ga3-6" target="Z5EJQrZzNwdHl78D_Ga3-31" edge="1">
          <mxGeometry relative="1" as="geometry" />
        </mxCell>
        <mxCell id="Z5EJQrZzNwdHl78D_Ga3-6" value="" style="ellipse;whiteSpace=wrap;html=1;fillColor=#FFFFFF;strokeColor=#999999;" parent="1" vertex="1">
          <mxGeometry x="280" y="175" width="80" height="50" as="geometry" />
        </mxCell>
        <mxCell id="Z5EJQrZzNwdHl78D_Ga3-36" style="edgeStyle=orthogonalEdgeStyle;rounded=0;orthogonalLoop=1;jettySize=auto;html=1;entryX=0;entryY=0.5;entryDx=0;entryDy=0;strokeColor=#000000;" parent="1" source="Z5EJQrZzNwdHl78D_Ga3-7" target="Z5EJQrZzNwdHl78D_Ga3-32" edge="1">
          <mxGeometry relative="1" as="geometry" />
        </mxCell>
        <mxCell id="Z5EJQrZzNwdHl78D_Ga3-7" value="" style="ellipse;whiteSpace=wrap;html=1;fillColor=#FFFFFF;strokeColor=#999999;" parent="1" vertex="1">
          <mxGeometry x="280" y="250" width="80" height="50" as="geometry" />
        </mxCell>
        <mxCell id="Z5EJQrZzNwdHl78D_Ga3-8" value="" style="ellipse;whiteSpace=wrap;html=1;aspect=fixed;fillColor=#008a00;fontColor=#ffffff;strokeColor=#005700;" parent="1" vertex="1">
          <mxGeometry x="300" y="130" width="10" height="10" as="geometry" />
        </mxCell>
        <mxCell id="Z5EJQrZzNwdHl78D_Ga3-9" value="" style="ellipse;whiteSpace=wrap;html=1;aspect=fixed;fillColor=#008a00;fontColor=#ffffff;strokeColor=#005700;" parent="1" vertex="1">
          <mxGeometry x="310" y="140" width="10" height="10" as="geometry" />
        </mxCell>
        <mxCell id="Z5EJQrZzNwdHl78D_Ga3-10" value="" style="ellipse;whiteSpace=wrap;html=1;aspect=fixed;fillColor=#008a00;fontColor=#ffffff;strokeColor=#005700;" parent="1" vertex="1">
          <mxGeometry x="330" y="130" width="10" height="10" as="geometry" />
        </mxCell>
        <mxCell id="Z5EJQrZzNwdHl78D_Ga3-11" value="" style="ellipse;whiteSpace=wrap;html=1;aspect=fixed;fillColor=#008a00;fontColor=#ffffff;strokeColor=#005700;" parent="1" vertex="1">
          <mxGeometry x="330" y="150" width="10" height="10" as="geometry" />
        </mxCell>
        <mxCell id="Z5EJQrZzNwdHl78D_Ga3-12" value="" style="ellipse;whiteSpace=wrap;html=1;aspect=fixed;fillColor=#008a00;fontColor=#ffffff;strokeColor=#005700;" parent="1" vertex="1">
          <mxGeometry x="290" y="150" width="10" height="10" as="geometry" />
        </mxCell>
        <mxCell id="Z5EJQrZzNwdHl78D_Ga3-13" value="" style="triangle;whiteSpace=wrap;html=1;fillColor=#0050ef;fontColor=#ffffff;strokeColor=#001DBC;" parent="1" vertex="1">
          <mxGeometry x="300" y="190" width="10" height="10" as="geometry" />
        </mxCell>
        <mxCell id="Z5EJQrZzNwdHl78D_Ga3-14" value="" style="triangle;whiteSpace=wrap;html=1;fillColor=#0050ef;fontColor=#ffffff;strokeColor=#001DBC;" parent="1" vertex="1">
          <mxGeometry x="315" y="205" width="10" height="10" as="geometry" />
        </mxCell>
        <mxCell id="Z5EJQrZzNwdHl78D_Ga3-15" value="" style="triangle;whiteSpace=wrap;html=1;fillColor=#0050ef;fontColor=#ffffff;strokeColor=#001DBC;" parent="1" vertex="1">
          <mxGeometry x="330" y="180" width="10" height="10" as="geometry" />
        </mxCell>
        <mxCell id="Z5EJQrZzNwdHl78D_Ga3-16" value="" style="triangle;whiteSpace=wrap;html=1;fillColor=#0050ef;fontColor=#ffffff;strokeColor=#001DBC;" parent="1" vertex="1">
          <mxGeometry x="340" y="195" width="10" height="10" as="geometry" />
        </mxCell>
        <mxCell id="Z5EJQrZzNwdHl78D_Ga3-17" value="" style="rhombus;whiteSpace=wrap;html=1;fillColor=#d80073;fontColor=#ffffff;strokeColor=#A50040;" parent="1" vertex="1">
          <mxGeometry x="330" y="260" width="10" height="10" as="geometry" />
        </mxCell>
        <mxCell id="Z5EJQrZzNwdHl78D_Ga3-18" value="" style="rhombus;whiteSpace=wrap;html=1;fillColor=#d80073;fontColor=#ffffff;strokeColor=#A50040;" parent="1" vertex="1">
          <mxGeometry x="290" y="270" width="10" height="10" as="geometry" />
        </mxCell>
        <mxCell id="Z5EJQrZzNwdHl78D_Ga3-19" value="" style="rhombus;whiteSpace=wrap;html=1;fillColor=#d80073;fontColor=#ffffff;strokeColor=#A50040;" parent="1" vertex="1">
          <mxGeometry x="300" y="260" width="10" height="10" as="geometry" />
        </mxCell>
        <mxCell id="Z5EJQrZzNwdHl78D_Ga3-20" value="" style="rhombus;whiteSpace=wrap;html=1;fillColor=#d80073;fontColor=#ffffff;strokeColor=#A50040;" parent="1" vertex="1">
          <mxGeometry x="310" y="280" width="10" height="10" as="geometry" />
        </mxCell>
        <mxCell id="Z5EJQrZzNwdHl78D_Ga3-21" value="" style="rhombus;whiteSpace=wrap;html=1;fillColor=#d80073;fontColor=#ffffff;strokeColor=#A50040;" parent="1" vertex="1">
          <mxGeometry x="330" y="280" width="10" height="10" as="geometry" />
        </mxCell>
        <mxCell id="Z5EJQrZzNwdHl78D_Ga3-22" value="" style="rhombus;whiteSpace=wrap;html=1;fillColor=#d80073;fontColor=#ffffff;strokeColor=#A50040;" parent="1" vertex="1">
          <mxGeometry x="340" y="270" width="10" height="10" as="geometry" />
        </mxCell>
        <mxCell id="Z5EJQrZzNwdHl78D_Ga3-23" value="" style="rhombus;whiteSpace=wrap;html=1;fillColor=#d80073;fontColor=#ffffff;strokeColor=#A50040;" parent="1" vertex="1">
          <mxGeometry x="315" y="270" width="10" height="10" as="geometry" />
        </mxCell>
        <mxCell id="Z5EJQrZzNwdHl78D_Ga3-24" value="C1" style="text;strokeColor=none;align=center;fillColor=none;html=1;verticalAlign=middle;whiteSpace=wrap;rounded=0;fontColor=#000000;" parent="1" vertex="1">
          <mxGeometry x="110" y="130" width="60" height="30" as="geometry" />
        </mxCell>
        <mxCell id="Z5EJQrZzNwdHl78D_Ga3-25" value="C2" style="text;strokeColor=none;align=center;fillColor=none;html=1;verticalAlign=middle;whiteSpace=wrap;rounded=0;fontColor=#000000;" parent="1" vertex="1">
          <mxGeometry x="170" y="175" width="60" height="30" as="geometry" />
        </mxCell>
        <mxCell id="Z5EJQrZzNwdHl78D_Ga3-26" value="Cn" style="text;strokeColor=none;align=center;fillColor=none;html=1;verticalAlign=middle;whiteSpace=wrap;rounded=0;fontColor=#000000;" parent="1" vertex="1">
          <mxGeometry x="130" y="250" width="60" height="30" as="geometry" />
        </mxCell>
        <mxCell id="Z5EJQrZzNwdHl78D_Ga3-27" value="" style="curved=1;endArrow=classic;html=1;rounded=0;entryX=0;entryY=0;entryDx=0;entryDy=0;exitX=0.75;exitY=0;exitDx=0;exitDy=0;strokeColor=#000000;" parent="1" source="Z5EJQrZzNwdHl78D_Ga3-24" target="Z5EJQrZzNwdHl78D_Ga3-5" edge="1">
          <mxGeometry width="50" height="50" relative="1" as="geometry">
            <mxPoint x="190" y="200" as="sourcePoint" />
            <mxPoint x="240" y="150" as="targetPoint" />
            <Array as="points">
              <mxPoint x="250" y="90" />
            </Array>
          </mxGeometry>
        </mxCell>
        <mxCell id="Z5EJQrZzNwdHl78D_Ga3-28" value="" style="curved=1;endArrow=classic;html=1;rounded=0;entryX=0;entryY=0;entryDx=0;entryDy=0;exitX=0.75;exitY=0;exitDx=0;exitDy=0;strokeColor=#000000;" parent="1" target="Z5EJQrZzNwdHl78D_Ga3-6" edge="1">
          <mxGeometry width="50" height="50" relative="1" as="geometry">
            <mxPoint x="213" y="180" as="sourcePoint" />
            <mxPoint x="350" y="177" as="targetPoint" />
            <Array as="points">
              <mxPoint x="280" y="160" />
            </Array>
          </mxGeometry>
        </mxCell>
        <mxCell id="Z5EJQrZzNwdHl78D_Ga3-29" value="" style="curved=1;endArrow=classic;html=1;rounded=0;exitX=0.75;exitY=0;exitDx=0;exitDy=0;strokeColor=#000000;" parent="1" target="Z5EJQrZzNwdHl78D_Ga3-7" edge="1">
          <mxGeometry width="50" height="50" relative="1" as="geometry">
            <mxPoint x="190" y="258" as="sourcePoint" />
            <mxPoint x="269" y="260" as="targetPoint" />
            <Array as="points">
              <mxPoint x="240" y="290" />
            </Array>
          </mxGeometry>
        </mxCell>
        <mxCell id="Z5EJQrZzNwdHl78D_Ga3-41" style="edgeStyle=orthogonalEdgeStyle;rounded=0;orthogonalLoop=1;jettySize=auto;html=1;entryX=0;entryY=0.5;entryDx=0;entryDy=0;strokeColor=#000000;" parent="1" source="Z5EJQrZzNwdHl78D_Ga3-30" target="Z5EJQrZzNwdHl78D_Ga3-37" edge="1">
          <mxGeometry relative="1" as="geometry">
            <Array as="points">
              <mxPoint x="500" y="145" />
              <mxPoint x="500" y="208" />
            </Array>
          </mxGeometry>
        </mxCell>
        <mxCell id="Z5EJQrZzNwdHl78D_Ga3-30" value="p( x | C1)" style="rounded=0;whiteSpace=wrap;html=1;fillColor=#dae8fc;strokeColor=#6c8ebf;fontColor=#000000;" parent="1" vertex="1">
          <mxGeometry x="400" y="125" width="90" height="40" as="geometry" />
        </mxCell>
        <mxCell id="Z5EJQrZzNwdHl78D_Ga3-42" style="edgeStyle=orthogonalEdgeStyle;rounded=0;orthogonalLoop=1;jettySize=auto;html=1;exitX=1;exitY=0.5;exitDx=0;exitDy=0;endArrow=none;endFill=0;strokeColor=#000000;" parent="1" source="Z5EJQrZzNwdHl78D_Ga3-31" edge="1">
          <mxGeometry relative="1" as="geometry">
            <mxPoint x="500" y="199.98039215686276" as="targetPoint" />
          </mxGeometry>
        </mxCell>
        <mxCell id="Z5EJQrZzNwdHl78D_Ga3-31" value="p( x | C1)" style="rounded=0;whiteSpace=wrap;html=1;fillColor=#dae8fc;strokeColor=#6c8ebf;fontColor=#000000;" parent="1" vertex="1">
          <mxGeometry x="400" y="180" width="90" height="40" as="geometry" />
        </mxCell>
        <mxCell id="Z5EJQrZzNwdHl78D_Ga3-38" style="edgeStyle=orthogonalEdgeStyle;rounded=0;orthogonalLoop=1;jettySize=auto;html=1;exitX=1;exitY=0.5;exitDx=0;exitDy=0;entryX=0;entryY=0.5;entryDx=0;entryDy=0;strokeColor=#000000;" parent="1" source="Z5EJQrZzNwdHl78D_Ga3-32" target="Z5EJQrZzNwdHl78D_Ga3-37" edge="1">
          <mxGeometry relative="1" as="geometry">
            <Array as="points">
              <mxPoint x="500" y="275" />
              <mxPoint x="500" y="208" />
            </Array>
          </mxGeometry>
        </mxCell>
        <mxCell id="Z5EJQrZzNwdHl78D_Ga3-32" value="p( x | C1)" style="rounded=0;whiteSpace=wrap;html=1;fillColor=#dae8fc;strokeColor=#6c8ebf;fontColor=#000000;" parent="1" vertex="1">
          <mxGeometry x="400" y="255" width="90" height="40" as="geometry" />
        </mxCell>
        <mxCell id="Z5EJQrZzNwdHl78D_Ga3-37" value="Classifier" style="rounded=0;whiteSpace=wrap;html=1;fillColor=#e3c800;fontColor=#000000;strokeColor=#B09500;" parent="1" vertex="1">
          <mxGeometry x="520" y="125" width="90" height="165" as="geometry" />
        </mxCell>
        <mxCell id="Z5EJQrZzNwdHl78D_Ga3-44" style="edgeStyle=orthogonalEdgeStyle;rounded=0;orthogonalLoop=1;jettySize=auto;html=1;strokeColor=#000000;" parent="1" source="Z5EJQrZzNwdHl78D_Ga3-43" edge="1">
          <mxGeometry relative="1" as="geometry">
            <mxPoint x="565" y="290.0000000000001" as="targetPoint" />
          </mxGeometry>
        </mxCell>
        <mxCell id="Z5EJQrZzNwdHl78D_Ga3-43" value="Xnew" style="ellipse;shape=cloud;whiteSpace=wrap;html=1;fillColor=#1ba1e2;strokeColor=#006EAF;fontColor=#ffffff;" parent="1" vertex="1">
          <mxGeometry x="520" y="320" width="90" height="50" as="geometry" />
        </mxCell>
        <mxCell id="Z5EJQrZzNwdHl78D_Ga3-54" style="edgeStyle=orthogonalEdgeStyle;rounded=0;orthogonalLoop=1;jettySize=auto;html=1;exitX=1;exitY=0.5;exitDx=0;exitDy=0;entryX=0;entryY=0.5;entryDx=0;entryDy=0;strokeColor=#000000;" parent="1" source="Z5EJQrZzNwdHl78D_Ga3-45" target="Z5EJQrZzNwdHl78D_Ga3-51" edge="1">
          <mxGeometry relative="1" as="geometry">
            <Array as="points">
              <mxPoint x="747" y="145" />
              <mxPoint x="747" y="200" />
            </Array>
          </mxGeometry>
        </mxCell>
        <mxCell id="Z5EJQrZzNwdHl78D_Ga3-45" value="P(C1 | xnew)" style="text;strokeColor=none;align=center;fillColor=none;html=1;verticalAlign=middle;whiteSpace=wrap;rounded=0;fontColor=#000000;" parent="1" vertex="1">
          <mxGeometry x="640" y="130" width="90" height="30" as="geometry" />
        </mxCell>
        <mxCell id="Z5EJQrZzNwdHl78D_Ga3-56" style="edgeStyle=orthogonalEdgeStyle;rounded=0;orthogonalLoop=1;jettySize=auto;html=1;entryX=0;entryY=0.5;entryDx=0;entryDy=0;strokeColor=#000000;" parent="1" source="Z5EJQrZzNwdHl78D_Ga3-46" target="Z5EJQrZzNwdHl78D_Ga3-51" edge="1">
          <mxGeometry relative="1" as="geometry" />
        </mxCell>
        <mxCell id="Z5EJQrZzNwdHl78D_Ga3-46" value="P(C2 | xnew)" style="text;strokeColor=none;align=center;fillColor=none;html=1;verticalAlign=middle;whiteSpace=wrap;rounded=0;fontColor=#000000;" parent="1" vertex="1">
          <mxGeometry x="640" y="185" width="90" height="30" as="geometry" />
        </mxCell>
        <mxCell id="Z5EJQrZzNwdHl78D_Ga3-58" style="edgeStyle=orthogonalEdgeStyle;rounded=0;orthogonalLoop=1;jettySize=auto;html=1;exitX=1;exitY=0.5;exitDx=0;exitDy=0;entryX=0;entryY=0.5;entryDx=0;entryDy=0;strokeColor=#000000;" parent="1" source="Z5EJQrZzNwdHl78D_Ga3-47" target="Z5EJQrZzNwdHl78D_Ga3-51" edge="1">
          <mxGeometry relative="1" as="geometry">
            <Array as="points">
              <mxPoint x="747" y="275" />
              <mxPoint x="747" y="200" />
            </Array>
          </mxGeometry>
        </mxCell>
        <mxCell id="Z5EJQrZzNwdHl78D_Ga3-47" value="P(C2 | xnew)" style="text;strokeColor=none;align=center;fillColor=none;html=1;verticalAlign=middle;whiteSpace=wrap;rounded=0;fontColor=#000000;" parent="1" vertex="1">
          <mxGeometry x="640" y="260" width="90" height="30" as="geometry" />
        </mxCell>
        <mxCell id="Z5EJQrZzNwdHl78D_Ga3-48" value="" style="endArrow=classic;html=1;rounded=0;entryX=0;entryY=0.5;entryDx=0;entryDy=0;exitX=1.007;exitY=0.123;exitDx=0;exitDy=0;exitPerimeter=0;strokeColor=#000000;" parent="1" source="Z5EJQrZzNwdHl78D_Ga3-37" target="Z5EJQrZzNwdHl78D_Ga3-45" edge="1">
          <mxGeometry width="50" height="50" relative="1" as="geometry">
            <mxPoint x="570" y="190" as="sourcePoint" />
            <mxPoint x="620" y="140" as="targetPoint" />
          </mxGeometry>
        </mxCell>
        <mxCell id="Z5EJQrZzNwdHl78D_Ga3-49" value="" style="endArrow=classic;html=1;rounded=0;entryX=0;entryY=0.5;entryDx=0;entryDy=0;exitX=1.007;exitY=0.123;exitDx=0;exitDy=0;exitPerimeter=0;strokeColor=#000000;" parent="1" edge="1">
          <mxGeometry width="50" height="50" relative="1" as="geometry">
            <mxPoint x="611" y="200" as="sourcePoint" />
            <mxPoint x="640" y="200" as="targetPoint" />
          </mxGeometry>
        </mxCell>
        <mxCell id="Z5EJQrZzNwdHl78D_Ga3-50" value="" style="endArrow=classic;html=1;rounded=0;entryX=0;entryY=0.5;entryDx=0;entryDy=0;exitX=1.007;exitY=0.123;exitDx=0;exitDy=0;exitPerimeter=0;strokeColor=#000000;" parent="1" edge="1">
          <mxGeometry width="50" height="50" relative="1" as="geometry">
            <mxPoint x="611" y="274.83" as="sourcePoint" />
            <mxPoint x="640" y="274.83" as="targetPoint" />
          </mxGeometry>
        </mxCell>
        <mxCell id="Z5EJQrZzNwdHl78D_Ga3-51" value="분류 결과&lt;div&gt;y(x)&lt;/div&gt;" style="text;strokeColor=none;align=center;fillColor=none;html=1;verticalAlign=middle;whiteSpace=wrap;rounded=0;fontColor=#000000;" parent="1" vertex="1">
          <mxGeometry x="767" y="185" width="60" height="30" as="geometry" />
        </mxCell>
        <mxCell id="Z5EJQrZzNwdHl78D_Ga3-59" value="분류할 데이터" style="text;strokeColor=none;align=center;fillColor=none;html=1;verticalAlign=middle;whiteSpace=wrap;rounded=0;fontColor=#000000;" parent="1" vertex="1">
          <mxGeometry x="527.5" y="370" width="75" height="30" as="geometry" />
        </mxCell>
        <mxCell id="Z5EJQrZzNwdHl78D_Ga3-60" value="&lt;font style=&quot;font-size: 17px;&quot;&gt;학습&lt;/font&gt;" style="shape=step;perimeter=stepPerimeter;whiteSpace=wrap;html=1;fixedSize=1;" parent="1" vertex="1">
          <mxGeometry x="80" y="60" width="480" height="30" as="geometry" />
        </mxCell>
        <mxCell id="Z5EJQrZzNwdHl78D_Ga3-61" value="&lt;span style=&quot;font-size: 17px;&quot;&gt;분류&lt;/span&gt;" style="shape=step;perimeter=stepPerimeter;whiteSpace=wrap;html=1;fixedSize=1;" parent="1" vertex="1">
          <mxGeometry x="560" y="60" width="267" height="30" as="geometry" />
        </mxCell>
        <mxCell id="mTE_38fS_a1iuZElx4U2-1" value="&lt;font color=&quot;#000000&quot;&gt;모집단&lt;/font&gt;" style="text;strokeColor=none;align=center;fillColor=none;html=1;verticalAlign=middle;whiteSpace=wrap;rounded=0;" vertex="1" parent="1">
          <mxGeometry x="115" y="330" width="90" height="30" as="geometry" />
        </mxCell>
        <mxCell id="mTE_38fS_a1iuZElx4U2-2" value="데이터 집합" style="text;strokeColor=none;align=center;fillColor=none;html=1;verticalAlign=middle;whiteSpace=wrap;rounded=0;fontColor=#000000;" vertex="1" parent="1">
          <mxGeometry x="275" y="330" width="90" height="30" as="geometry" />
        </mxCell>
        <mxCell id="mTE_38fS_a1iuZElx4U2-3" value="클리스별&lt;div&gt;확률밀도&lt;/div&gt;" style="text;strokeColor=none;align=center;fillColor=none;html=1;verticalAlign=middle;whiteSpace=wrap;rounded=0;fontColor=#000000;" vertex="1" parent="1">
          <mxGeometry x="400" y="330" width="90" height="30" as="geometry" />
        </mxCell>
        <mxCell id="mTE_38fS_a1iuZElx4U2-4" value="후험확률" style="text;strokeColor=none;align=center;fillColor=none;html=1;verticalAlign=middle;whiteSpace=wrap;rounded=0;fontColor=#000000;" vertex="1" parent="1">
          <mxGeometry x="640" y="330" width="90" height="30" as="geometry" />
        </mxCell>
      </root>
    </mxGraphModel>
  </diagram>
</mxfile>
